<?xml version="1.0" encoding="UTF-8" standalone="no"?>
<!-- Created with Pixodesk SVG (https://pixodesk.com) -->
<svg xmlns="http://www.w3.org/2000/svg" viewBox="0 0 400 400" text-rendering="geometricPrecision" shape-rendering="geometricPrecision" fill="none">
  <defs>
    <pattern id="_px_svg_2t3bhlcq" stroke="#000000" viewBox="0 0 6 6" width="6" height="6" patternUnits="userSpaceOnUse">
      <path fill="none" stroke-width="2" d="M0,2L6,2"/>
    </pattern>
    <pattern id="_px_svg_2t3bhlcr" stroke="#000000" viewBox="0 0 6 6" width="6" height="6" patternUnits="userSpaceOnUse" patternTransform="rotate(90)">
      <path fill="none" stroke-width="2" d="M0,2L6,2"/>
    </pattern>
  </defs>
  <g data-px-label="grid" transform="translate(200, 200)translate(-200, -200)" style="pointer-events:none">
    <path fill="none" stroke="url(#_px_svg_2t3bhlcq)" stroke-opacity="0.35" d="M96,0L96,400"/>
    <path fill="none" stroke="url(#_px_svg_2t3bhlcr)" stroke-opacity="0.35" d="M0,96L400,96"/>
    <path fill="none" stroke="url(#_px_svg_2t3bhlcr)" stroke-opacity="0.35" d="M0,48L400,48"/>
    <path fill="none" stroke="url(#_px_svg_2t3bhlcr)" stroke-opacity="0.35" d="M0,144L400,144"/>
    <path fill="none" stroke="url(#_px_svg_2t3bhlcq)" stroke-opacity="0.35" d="M48,0L48,400"/>
    <path fill="none" stroke="url(#_px_svg_2t3bhlcq)" stroke-opacity="0.35" d="M144,0L144,400"/>
    <path fill="none" stroke="url(#_px_svg_2t3bhlcr)" stroke-opacity="0.35" transform="translate(0, 48)" d="M0,144L400,144"/>
    <path fill="none" stroke="url(#_px_svg_2t3bhlcr)" stroke-opacity="0.35" transform="translate(0, 96)" d="M0,144L400,144"/>
    <path fill="none" stroke="url(#_px_svg_2t3bhlcr)" stroke-opacity="0.35" transform="translate(0, 144)" d="M0,144L400,144"/>
    <path fill="none" stroke="url(#_px_svg_2t3bhlcr)" stroke-opacity="0.35" transform="translate(0, 192)" d="M0,144L400,144"/>
    <path fill="none" stroke="url(#_px_svg_2t3bhlcr)" stroke-opacity="0.35" transform="translate(0, 240)" d="M0,144L400,144"/>
    <path fill="none" stroke="url(#_px_svg_2t3bhlcq)" stroke-opacity="0.35" transform="translate(144, 0)" d="M96,0L96,400"/>
    <path fill="none" stroke="url(#_px_svg_2t3bhlcq)" stroke-opacity="0.35" transform="translate(144, 0)" d="M48,0L48,400"/>
    <path fill="none" stroke="url(#_px_svg_2t3bhlcq)" stroke-opacity="0.35" transform="translate(144, 0)" d="M144,0L144,400"/>
    <path fill="none" stroke="url(#_px_svg_2t3bhlcq)" stroke-opacity="0.35" transform="translate(240, 0)" d="M96,0L96,400"/>
    <path fill="none" stroke="url(#_px_svg_2t3bhlcq)" stroke-opacity="0.35" transform="translate(240, 0)" d="M144,0L144,400"/>
  </g>
  <path data-px-label="purl" fill="#000000" stroke="none" transform="translate(48, 0)" d="M6,22L42,22L42,26L6,26L6,22z" style="pointer-events:none"/>
  <path data-px-label="ktbl" fill="#000000" stroke="none" transform="translate(96, 0)" d="M28,6L28,18L34,12L36,14L28,22L28,42L24,42L24,26L18,32L16,30L24,22L24,6L28,6z" style="pointer-events:none"/>
  <path data-px-label="k2tog" fill="#000000" stroke="none" transform="translate(144, 0)" d="M10.799,34.3137L36.2548,8.8579L39.0833,11.6863L13.6274,37.1421L10.799,34.3137z" style="pointer-events:none"/>
  <path data-px-label="ssk" fill="#000000" stroke="none" transform="translate(192, 0)" d="M39.0832,34.3137L13.6273,8.8577L10.7989,11.6862L36.2547,37.1421L39.0832,34.3137z" style="pointer-events:none"/>
  <path data-px-label="knit" fill="#000000" stroke="none" transform="translate(240, 0)" d="M28,6L28,42L24,42L24,6L28,6z" style="pointer-events:none"/>
  <path data-px-label="yarnover" fill="#000000" stroke="none" transform="translate(48, 48)" d="M23.672,10.1249L23.6738,8.3249C27.533,8.3288,31.0503,9.808,33.6962,12.2277C36.7063,14.9803,38.5972,18.9575,38.6016,23.3759L38.6016,23.3795C38.5972,27.7979,36.7063,31.7751,33.6962,34.5277C31.0503,36.9474,27.533,38.4266,23.6738,38.4305L23.6702,38.4305C19.811,38.4266,16.2937,36.9474,13.6477,34.5277C10.6376,31.7751,8.7467,27.7979,8.7423,23.3795L8.7423,23.3759C8.7467,18.9575,10.6376,14.9803,13.6477,12.2277C16.2937,9.808,19.811,8.3288,23.6702,8.3249L23.672,10.1249zM23.672,11.9249C20.7493,11.9283,18.0885,13.045,16.0771,14.8843C13.7861,16.9794,12.3462,20.0044,12.3423,23.3777C12.3462,26.751,13.7861,29.776,16.0771,31.8711C18.0885,33.7104,20.7493,34.8271,23.672,34.8305C26.5947,34.8271,29.2555,33.7104,31.2668,31.8711C33.5578,29.776,34.9977,26.751,35.0016,23.3777C34.9977,20.0044,33.5578,16.9794,31.2668,14.8843C29.2555,13.045,26.5947,11.9283,23.672,11.9249z" style="pointer-events:none"/>
  <path data-px-label="k3tog" fill="#000000" stroke="none" transform="translate(144, 48)" d="M10.799,34.3137L36.2548,8.8579L39.0833,11.6862L27.8813,22.8882L39.4493,34.4563L36.6208,37.2847L25.0528,25.7167L13.6274,37.1421L10.799,34.3137z" style="pointer-events:none"/>
  <path data-px-label="p2tog" fill="#000000" stroke="none" transform="translate(144, 96)" d="M39.4324,38.0458L39.4324,41.775L11.0968,41.775L11.0968,38.0458L39.4324,38.0458zM10.799,34.3137L36.2548,8.8579L39.0833,11.6862L13.6274,37.1421L10.799,34.3137z" style="pointer-events:none"/>
  <path data-px-label="p3tog" fill="#000000" stroke="none" transform="translate(144, 144)" d="M39.4323,38.0458L39.4323,41.7749L11.0967,41.7749L11.0967,38.0458L39.4323,38.0458zM10.799,34.3137L36.2548,8.8579L39.0833,11.6862L27.8812,22.8882L39.4492,34.4562L36.6208,37.2846L25.0528,25.7166L13.6274,37.1421L10.799,34.3137z" style="pointer-events:none"/>
  <path data-px-label="ssp" fill="#000000" stroke="none" transform="translate(192, 48)" d="M37.4323,38.0456L37.4323,41.7749L9.0966,41.7749L9.0966,38.0456L37.4323,38.0456zM13.6273,8.8577L39.0832,34.3137L36.2547,37.1421L10.7989,11.6862L13.6273,8.8577z" style="pointer-events:none"/>
  <path data-px-label="nostitch" fill="#000000" stroke="none" transform="translate(96, 48)" d="M4.3816,2.8231C4.9339,2.8231,5.3816,3.2708,5.3816,3.8231C5.3816,4.3754,4.9339,4.8231,4.3816,4.8231C3.8293,4.8231,3.3816,4.3754,3.3816,3.8231C3.3816,3.2708,3.8293,2.8231,4.3816,2.8231zM9.3816,2.823C9.9339,2.823,10.3816,3.2707,10.3816,3.823C10.3816,4.3753,9.9339,4.823,9.3816,4.823C8.8293,4.823,8.3816,4.3753,8.3816,3.823C8.3816,3.2707,8.8293,2.823,9.3816,2.823zM14.3815,2.823C14.9338,2.823,15.3815,3.2707,15.3815,3.823C15.3815,4.3753,14.9338,4.823,14.3815,4.823C13.8292,4.823,13.3815,4.3753,13.3815,3.823C13.3815,3.2707,13.8292,2.823,14.3815,2.823zM19.3815,2.823C19.9338,2.823,20.3815,3.2707,20.3815,3.823C20.3815,4.3753,19.9338,4.823,19.3815,4.823C18.8292,4.823,18.3815,4.3753,18.3815,3.823C18.3815,3.2707,18.8292,2.823,19.3815,2.823zM24.3815,2.823C24.9338,2.823,25.3815,3.2707,25.3815,3.823C25.3815,4.3753,24.9338,4.823,24.3815,4.823C23.8292,4.823,23.3815,4.3753,23.3815,3.823C23.3815,3.2707,23.8292,2.823,24.3815,2.823zM29.3815,2.823C29.9338,2.823,30.3815,3.2707,30.3815,3.823C30.3815,4.3753,29.9338,4.823,29.3815,4.823C28.8292,4.823,28.3815,4.3753,28.3815,3.823C28.3815,3.2707,28.8292,2.823,29.3815,2.823zM34.3815,2.823C34.9338,2.823,35.3815,3.2707,35.3815,3.823C35.3815,4.3753,34.9338,4.823,34.3815,4.823C33.8292,4.823,33.3815,4.3753,33.3815,3.823C33.3815,3.2707,33.8292,2.823,34.3815,2.823zM39.3815,2.823C39.9338,2.823,40.3815,3.2707,40.3815,3.823C40.3815,4.3753,39.9338,4.823,39.3815,4.823C38.8292,4.823,38.3815,4.3753,38.3815,3.823C38.3815,3.2707,38.8292,2.823,39.3815,2.823zM44.3815,2.823C44.9338,2.823,45.3815,3.2707,45.3815,3.823C45.3815,4.3753,44.9338,4.823,44.3815,4.823C43.8292,4.823,43.3815,4.3753,43.3815,3.823C43.3815,3.2707,43.8292,2.823,44.3815,2.823zM4.3816,7.823C4.9339,7.823,5.3816,8.2707,5.3816,8.823C5.3816,9.3753,4.9339,9.823,4.3816,9.823C3.8293,9.823,3.3816,9.3753,3.3816,8.823C3.3816,8.2707,3.8293,7.823,4.3816,7.823zM9.3815,7.823C9.9338,7.823,10.3815,8.2707,10.3815,8.823C10.3815,9.3753,9.9338,9.823,9.3815,9.823C8.8292,9.823,8.3815,9.3753,8.3815,8.823C8.3815,8.2707,8.8292,7.823,9.3815,7.823zM14.3815,7.823C14.9338,7.823,15.3815,8.2707,15.3815,8.823C15.3815,9.3753,14.9338,9.823,14.3815,9.823C13.8292,9.823,13.3815,9.3753,13.3815,8.823C13.3815,8.2707,13.8292,7.823,14.3815,7.823zM19.3815,7.823C19.9338,7.823,20.3815,8.2707,20.3815,8.823C20.3815,9.3753,19.9338,9.823,19.3815,9.823C18.8292,9.823,18.3815,9.3753,18.3815,8.823C18.3815,8.2707,18.8292,7.823,19.3815,7.823zM24.3815,7.823C24.9338,7.823,25.3815,8.2707,25.3815,8.823C25.3815,9.3753,24.9338,9.823,24.3815,9.823C23.8292,9.823,23.3815,9.3753,23.3815,8.823C23.3815,8.2707,23.8292,7.823,24.3815,7.823zM29.3815,7.823C29.9338,7.823,30.3815,8.2707,30.3815,8.823C30.3815,9.3753,29.9338,9.823,29.3815,9.823C28.8292,9.823,28.3815,9.3753,28.3815,8.823C28.3815,8.2707,28.8292,7.823,29.3815,7.823zM34.3815,7.823C34.9338,7.823,35.3815,8.2707,35.3815,8.823C35.3815,9.3753,34.9338,9.823,34.3815,9.823C33.8292,9.823,33.3815,9.3753,33.3815,8.823C33.3815,8.2707,33.8292,7.823,34.3815,7.823zM39.3815,7.823C39.9338,7.823,40.3815,8.2707,40.3815,8.823C40.3815,9.3753,39.9338,9.823,39.3815,9.823C38.8292,9.823,38.3815,9.3753,38.3815,8.823C38.3815,8.2707,38.8292,7.823,39.3815,7.823zM44.3815,7.823C44.9338,7.823,45.3815,8.2707,45.3815,8.823C45.3815,9.3753,44.9338,9.823,44.3815,9.823C43.8292,9.823,43.3815,9.3753,43.3815,8.823C43.3815,8.2707,43.8292,7.823,44.3815,7.823zM4.3816,12.823C4.9339,12.823,5.3816,13.2707,5.3816,13.823C5.3816,14.3753,4.9339,14.823,4.3816,14.823C3.8293,14.823,3.3816,14.3753,3.3816,13.823C3.3816,13.2707,3.8293,12.823,4.3816,12.823zM9.3815,12.823C9.9338,12.823,10.3815,13.2707,10.3815,13.823C10.3815,14.3753,9.9338,14.823,9.3815,14.823C8.8292,14.823,8.3815,14.3753,8.3815,13.823C8.3815,13.2707,8.8292,12.823,9.3815,12.823zM14.3815,12.823C14.9338,12.823,15.3815,13.2707,15.3815,13.823C15.3815,14.3753,14.9338,14.823,14.3815,14.823C13.8292,14.823,13.3815,14.3753,13.3815,13.823C13.3815,13.2707,13.8292,12.823,14.3815,12.823zM19.3815,12.823C19.9338,12.823,20.3815,13.2707,20.3815,13.823C20.3815,14.3753,19.9338,14.823,19.3815,14.823C18.8292,14.823,18.3815,14.3753,18.3815,13.823C18.3815,13.2707,18.8292,12.823,19.3815,12.823zM24.3815,12.823C24.9338,12.823,25.3815,13.2707,25.3815,13.823C25.3815,14.3753,24.9338,14.823,24.3815,14.823C23.8292,14.823,23.3815,14.3753,23.3815,13.823C23.3815,13.2707,23.8292,12.823,24.3815,12.823zM29.3815,12.823C29.9338,12.823,30.3815,13.2707,30.3815,13.823C30.3815,14.3753,29.9338,14.823,29.3815,14.823C28.8292,14.823,28.3815,14.3753,28.3815,13.823C28.3815,13.2707,28.8292,12.823,29.3815,12.823zM34.3815,12.823C34.9338,12.823,35.3815,13.2707,35.3815,13.823C35.3815,14.3753,34.9338,14.823,34.3815,14.823C33.8292,14.823,33.3815,14.3753,33.3815,13.823C33.3815,13.2707,33.8292,12.823,34.3815,12.823zM39.3815,12.823C39.9338,12.823,40.3815,13.2707,40.3815,13.823C40.3815,14.3753,39.9338,14.823,39.3815,14.823C38.8292,14.823,38.3815,14.3753,38.3815,13.823C38.3815,13.2707,38.8292,12.823,39.3815,12.823zM44.3815,12.823C44.9338,12.823,45.3815,13.2707,45.3815,13.823C45.3815,14.3753,44.9338,14.823,44.3815,14.823C43.8292,14.823,43.3815,14.3753,43.3815,13.823C43.3815,13.2707,43.8292,12.823,44.3815,12.823zM4.3816,17.823C4.9339,17.823,5.3816,18.2707,5.3816,18.823C5.3816,19.3753,4.9339,19.823,4.3816,19.823C3.8293,19.823,3.3816,19.3753,3.3816,18.823C3.3816,18.2707,3.8293,17.823,4.3816,17.823zM9.3815,17.823C9.9338,17.823,10.3815,18.2707,10.3815,18.823C10.3815,19.3753,9.9338,19.823,9.3815,19.823C8.8292,19.823,8.3815,19.3753,8.3815,18.823C8.3815,18.2707,8.8292,17.823,9.3815,17.823zM14.3815,17.823C14.9338,17.823,15.3815,18.2707,15.3815,18.823C15.3815,19.3753,14.9338,19.823,14.3815,19.823C13.8292,19.823,13.3815,19.3753,13.3815,18.823C13.3815,18.2707,13.8292,17.823,14.3815,17.823zM19.3815,17.823C19.9338,17.823,20.3815,18.2707,20.3815,18.823C20.3815,19.3753,19.9338,19.823,19.3815,19.823C18.8292,19.823,18.3815,19.3753,18.3815,18.823C18.3815,18.2707,18.8292,17.823,19.3815,17.823zM24.3815,17.823C24.9338,17.823,25.3815,18.2707,25.3815,18.823C25.3815,19.3753,24.9338,19.823,24.3815,19.823C23.8292,19.823,23.3815,19.3753,23.3815,18.823C23.3815,18.2707,23.8292,17.823,24.3815,17.823zM29.3815,17.823C29.9338,17.823,30.3815,18.2707,30.3815,18.823C30.3815,19.3753,29.9338,19.823,29.3815,19.823C28.8292,19.823,28.3815,19.3753,28.3815,18.823C28.3815,18.2707,28.8292,17.823,29.3815,17.823zM34.3815,17.823C34.9338,17.823,35.3815,18.2707,35.3815,18.823C35.3815,19.3753,34.9338,19.823,34.3815,19.823C33.8292,19.823,33.3815,19.3753,33.3815,18.823C33.3815,18.2707,33.8292,17.823,34.3815,17.823zM39.3815,17.823C39.9338,17.823,40.3815,18.2707,40.3815,18.823C40.3815,19.3753,39.9338,19.823,39.3815,19.823C38.8292,19.823,38.3815,19.3753,38.3815,18.823C38.3815,18.2707,38.8292,17.823,39.3815,17.823zM44.3815,17.823C44.9338,17.823,45.3815,18.2707,45.3815,18.823C45.3815,19.3753,44.9338,19.823,44.3815,19.823C43.8292,19.823,43.3815,19.3753,43.3815,18.823C43.3815,18.2707,43.8292,17.823,44.3815,17.823zM4.3816,22.823C4.9339,22.823,5.3816,23.2707,5.3816,23.823C5.3816,24.3753,4.9339,24.823,4.3816,24.823C3.8293,24.823,3.3816,24.3753,3.3816,23.823C3.3816,23.2707,3.8293,22.823,4.3816,22.823zM9.3815,22.823C9.9338,22.823,10.3815,23.2707,10.3815,23.823C10.3815,24.3753,9.9338,24.823,9.3815,24.823C8.8292,24.823,8.3815,24.3753,8.3815,23.823C8.3815,23.2707,8.8292,22.823,9.3815,22.823zM14.3815,22.823C14.9338,22.823,15.3815,23.2707,15.3815,23.823C15.3815,24.3753,14.9338,24.823,14.3815,24.823C13.8292,24.823,13.3815,24.3753,13.3815,23.823C13.3815,23.2707,13.8292,22.823,14.3815,22.823zM19.3815,22.823C19.9338,22.823,20.3815,23.2707,20.3815,23.823C20.3815,24.3753,19.9338,24.823,19.3815,24.823C18.8292,24.823,18.3815,24.3753,18.3815,23.823C18.3815,23.2707,18.8292,22.823,19.3815,22.823zM24.3815,22.823C24.9338,22.823,25.3815,23.2707,25.3815,23.823C25.3815,24.3753,24.9338,24.823,24.3815,24.823C23.8292,24.823,23.3815,24.3753,23.3815,23.823C23.3815,23.2707,23.8292,22.823,24.3815,22.823zM29.3815,22.823C29.9338,22.823,30.3815,23.2707,30.3815,23.823C30.3815,24.3753,29.9338,24.823,29.3815,24.823C28.8292,24.823,28.3815,24.3753,28.3815,23.823C28.3815,23.2707,28.8292,22.823,29.3815,22.823zM34.3815,22.823C34.9338,22.823,35.3815,23.2707,35.3815,23.823C35.3815,24.3753,34.9338,24.823,34.3815,24.823C33.8292,24.823,33.3815,24.3753,33.3815,23.823C33.3815,23.2707,33.8292,22.823,34.3815,22.823zM39.3815,22.823C39.9338,22.823,40.3815,23.2707,40.3815,23.823C40.3815,24.3753,39.9338,24.823,39.3815,24.823C38.8292,24.823,38.3815,24.3753,38.3815,23.823C38.3815,23.2707,38.8292,22.823,39.3815,22.823zM44.3815,22.823C44.9338,22.823,45.3815,23.2707,45.3815,23.823C45.3815,24.3753,44.9338,24.823,44.3815,24.823C43.8292,24.823,43.3815,24.3753,43.3815,23.823C43.3815,23.2707,43.8292,22.823,44.3815,22.823zM4.3816,27.823C4.9339,27.823,5.3816,28.2707,5.3816,28.823C5.3816,29.3753,4.9339,29.823,4.3816,29.823C3.8293,29.823,3.3816,29.3753,3.3816,28.823C3.3816,28.2707,3.8293,27.823,4.3816,27.823zM9.3815,27.823C9.9338,27.823,10.3815,28.2707,10.3815,28.823C10.3815,29.3753,9.9338,29.823,9.3815,29.823C8.8292,29.823,8.3815,29.3753,8.3815,28.823C8.3815,28.2707,8.8292,27.823,9.3815,27.823zM14.3815,27.823C14.9338,27.823,15.3815,28.2707,15.3815,28.823C15.3815,29.3753,14.9338,29.823,14.3815,29.823C13.8292,29.823,13.3815,29.3753,13.3815,28.823C13.3815,28.2707,13.8292,27.823,14.3815,27.823zM19.3815,27.823C19.9338,27.823,20.3815,28.2707,20.3815,28.823C20.3815,29.3753,19.9338,29.823,19.3815,29.823C18.8292,29.823,18.3815,29.3753,18.3815,28.823C18.3815,28.2707,18.8292,27.823,19.3815,27.823zM24.3815,27.823C24.9338,27.823,25.3815,28.2707,25.3815,28.823C25.3815,29.3753,24.9338,29.823,24.3815,29.823C23.8292,29.823,23.3815,29.3753,23.3815,28.823C23.3815,28.2707,23.8292,27.823,24.3815,27.823zM29.3815,27.823C29.9338,27.823,30.3815,28.2707,30.3815,28.823C30.3815,29.3753,29.9338,29.823,29.3815,29.823C28.8292,29.823,28.3815,29.3753,28.3815,28.823C28.3815,28.2707,28.8292,27.823,29.3815,27.823zM34.3815,27.823C34.9338,27.823,35.3815,28.2707,35.3815,28.823C35.3815,29.3753,34.9338,29.823,34.3815,29.823C33.8292,29.823,33.3815,29.3753,33.3815,28.823C33.3815,28.2707,33.8292,27.823,34.3815,27.823zM39.3815,27.823C39.9338,27.823,40.3815,28.2707,40.3815,28.823C40.3815,29.3753,39.9338,29.823,39.3815,29.823C38.8292,29.823,38.3815,29.3753,38.3815,28.823C38.3815,28.2707,38.8292,27.823,39.3815,27.823zM44.3815,27.823C44.9338,27.823,45.3815,28.2707,45.3815,28.823C45.3815,29.3753,44.9338,29.823,44.3815,29.823C43.8292,29.823,43.3815,29.3753,43.3815,28.823C43.3815,28.2707,43.8292,27.823,44.3815,27.823zM4.3816,32.823C4.9339,32.823,5.3816,33.2707,5.3816,33.823C5.3816,34.3753,4.9339,34.823,4.3816,34.823C3.8293,34.823,3.3816,34.3753,3.3816,33.823C3.3816,33.2707,3.8293,32.823,4.3816,32.823zM9.3815,32.823C9.9338,32.823,10.3815,33.2707,10.3815,33.823C10.3815,34.3753,9.9338,34.823,9.3815,34.823C8.8292,34.823,8.3815,34.3753,8.3815,33.823C8.3815,33.2707,8.8292,32.823,9.3815,32.823zM14.3815,32.823C14.9338,32.823,15.3815,33.2707,15.3815,33.823C15.3815,34.3753,14.9338,34.823,14.3815,34.823C13.8292,34.823,13.3815,34.3753,13.3815,33.823C13.3815,33.2707,13.8292,32.823,14.3815,32.823zM19.3815,32.823C19.9338,32.823,20.3815,33.2707,20.3815,33.823C20.3815,34.3753,19.9338,34.823,19.3815,34.823C18.8292,34.823,18.3815,34.3753,18.3815,33.823C18.3815,33.2707,18.8292,32.823,19.3815,32.823zM24.3815,32.823C24.9338,32.823,25.3815,33.2707,25.3815,33.823C25.3815,34.3753,24.9338,34.823,24.3815,34.823C23.8292,34.823,23.3815,34.3753,23.3815,33.823C23.3815,33.2707,23.8292,32.823,24.3815,32.823zM29.3815,32.823C29.9338,32.823,30.3815,33.2707,30.3815,33.823C30.3815,34.3753,29.9338,34.823,29.3815,34.823C28.8292,34.823,28.3815,34.3753,28.3815,33.823C28.3815,33.2707,28.8292,32.823,29.3815,32.823zM34.3815,32.823C34.9338,32.823,35.3815,33.2707,35.3815,33.823C35.3815,34.3753,34.9338,34.823,34.3815,34.823C33.8292,34.823,33.3815,34.3753,33.3815,33.823C33.3815,33.2707,33.8292,32.823,34.3815,32.823zM39.3815,32.823C39.9338,32.823,40.3815,33.2707,40.3815,33.823C40.3815,34.3753,39.9338,34.823,39.3815,34.823C38.8292,34.823,38.3815,34.3753,38.3815,33.823C38.3815,33.2707,38.8292,32.823,39.3815,32.823zM44.3815,32.823C44.9338,32.823,45.3815,33.2707,45.3815,33.823C45.3815,34.3753,44.9338,34.823,44.3815,34.823C43.8292,34.823,43.3815,34.3753,43.3815,33.823C43.3815,33.2707,43.8292,32.823,44.3815,32.823zM4.3816,37.823C4.9339,37.823,5.3816,38.2707,5.3816,38.823C5.3816,39.3753,4.9339,39.823,4.3816,39.823C3.8293,39.823,3.3816,39.3753,3.3816,38.823C3.3816,38.2707,3.8293,37.823,4.3816,37.823zM9.3815,37.823C9.9338,37.823,10.3815,38.2707,10.3815,38.823C10.3815,39.3753,9.9338,39.823,9.3815,39.823C8.8292,39.823,8.3815,39.3753,8.3815,38.823C8.3815,38.2707,8.8292,37.823,9.3815,37.823zM14.3815,37.823C14.9338,37.823,15.3815,38.2707,15.3815,38.823C15.3815,39.3753,14.9338,39.823,14.3815,39.823C13.8292,39.823,13.3815,39.3753,13.3815,38.823C13.3815,38.2707,13.8292,37.823,14.3815,37.823zM19.3815,37.823C19.9338,37.823,20.3815,38.2707,20.3815,38.823C20.3815,39.3753,19.9338,39.823,19.3815,39.823C18.8292,39.823,18.3815,39.3753,18.3815,38.823C18.3815,38.2707,18.8292,37.823,19.3815,37.823zM24.3815,37.823C24.9338,37.823,25.3815,38.2707,25.3815,38.823C25.3815,39.3753,24.9338,39.823,24.3815,39.823C23.8292,39.823,23.3815,39.3753,23.3815,38.823C23.3815,38.2707,23.8292,37.823,24.3815,37.823zM29.3815,37.823C29.9338,37.823,30.3815,38.2707,30.3815,38.823C30.3815,39.3753,29.9338,39.823,29.3815,39.823C28.8292,39.823,28.3815,39.3753,28.3815,38.823C28.3815,38.2707,28.8292,37.823,29.3815,37.823zM34.3815,37.823C34.9338,37.823,35.3815,38.2707,35.3815,38.823C35.3815,39.3753,34.9338,39.823,34.3815,39.823C33.8292,39.823,33.3815,39.3753,33.3815,38.823C33.3815,38.2707,33.8292,37.823,34.3815,37.823zM39.3815,37.823C39.9338,37.823,40.3815,38.2707,40.3815,38.823C40.3815,39.3753,39.9338,39.823,39.3815,39.823C38.8292,39.823,38.3815,39.3753,38.3815,38.823C38.3815,38.2707,38.8292,37.823,39.3815,37.823zM44.3815,37.823C44.9338,37.823,45.3815,38.2707,45.3815,38.823C45.3815,39.3753,44.9338,39.823,44.3815,39.823C43.8292,39.823,43.3815,39.3753,43.3815,38.823C43.3815,38.2707,43.8292,37.823,44.3815,37.823zM4.3816,42.823C4.9339,42.823,5.3816,43.2707,5.3816,43.823C5.3816,44.3753,4.9339,44.823,4.3816,44.823C3.8293,44.823,3.3816,44.3753,3.3816,43.823C3.3816,43.2707,3.8293,42.823,4.3816,42.823zM9.3815,42.823C9.9338,42.823,10.3815,43.2707,10.3815,43.823C10.3815,44.3753,9.9338,44.823,9.3815,44.823C8.8292,44.823,8.3815,44.3753,8.3815,43.823C8.3815,43.2707,8.8292,42.823,9.3815,42.823zM14.3815,42.823C14.9338,42.823,15.3815,43.2707,15.3815,43.823C15.3815,44.3753,14.9338,44.823,14.3815,44.823C13.8292,44.823,13.3815,44.3753,13.3815,43.823C13.3815,43.2707,13.8292,42.823,14.3815,42.823zM19.3815,42.823C19.9338,42.823,20.3815,43.2707,20.3815,43.823C20.3815,44.3753,19.9338,44.823,19.3815,44.823C18.8292,44.823,18.3815,44.3753,18.3815,43.823C18.3815,43.2707,18.8292,42.823,19.3815,42.823zM24.3815,42.823C24.9338,42.823,25.3815,43.2707,25.3815,43.823C25.3815,44.3753,24.9338,44.823,24.3815,44.823C23.8292,44.823,23.3815,44.3753,23.3815,43.823C23.3815,43.2707,23.8292,42.823,24.3815,42.823zM29.3815,42.823C29.9338,42.823,30.3815,43.2707,30.3815,43.823C30.3815,44.3753,29.9338,44.823,29.3815,44.823C28.8292,44.823,28.3815,44.3753,28.3815,43.823C28.3815,43.2707,28.8292,42.823,29.3815,42.823zM34.3815,42.823C34.9338,42.823,35.3815,43.2707,35.3815,43.823C35.3815,44.3753,34.9338,44.823,34.3815,44.823C33.8292,44.823,33.3815,44.3753,33.3815,43.823C33.3815,43.2707,33.8292,42.823,34.3815,42.823zM39.3815,42.823C39.9338,42.823,40.3815,43.2707,40.3815,43.823C40.3815,44.3753,39.9338,44.823,39.3815,44.823C38.8292,44.823,38.3815,44.3753,38.3815,43.823C38.3815,43.2707,38.8292,42.823,39.3815,42.823zM44.3815,42.823C44.9338,42.823,45.3815,43.2707,45.3815,43.823C45.3815,44.3753,44.9338,44.823,44.3815,44.823C43.8292,44.823,43.3815,44.3753,43.3815,43.823C43.3815,43.2707,43.8292,42.823,44.3815,42.823z" style="pointer-events:none"/>
</svg>