<?xml version="1.0" encoding="UTF-8" standalone="no"?>
<!-- Created with Pixodesk SVG (https://pixodesk.com) -->
<svg xmlns="http://www.w3.org/2000/svg" viewBox="0 0 400 400" text-rendering="geometricPrecision" shape-rendering="geometricPrecision" fill="none">
  <defs>
    <pattern id="_px_svg_2t3bhlcq" stroke="#000000" viewBox="0 0 6 6" width="6" height="6" patternUnits="userSpaceOnUse">
      <path fill="none" stroke-width="2" d="M0,2L6,2"/>
    </pattern>
    <pattern id="_px_svg_2t3bhlcr" stroke="#000000" viewBox="0 0 6 6" width="6" height="6" patternUnits="userSpaceOnUse" patternTransform="rotate(90)">
      <path fill="none" stroke-width="2" d="M0,2L6,2"/>
    </pattern>
  </defs>
  <g data-px-label="grid" transform="translate(200, 200)translate(-200, -200)" style="pointer-events:none">
    <path fill="none" stroke="url(#_px_svg_2t3bhlcq)" stroke-opacity="0.35" transform="translate(-14, 0)" d="M96,0L96,400"/>
    <path fill="none" stroke="url(#_px_svg_2t3bhlcr)" stroke-opacity="0.35" transform="translate(0, -14)" d="M0,96L400,96"/>
    <path fill="none" stroke="url(#_px_svg_2t3bhlcr)" stroke-opacity="0.35" transform="translate(0, -7)" d="M0,48L400,48"/>
    <path fill="none" stroke="url(#_px_svg_2t3bhlcr)" stroke-opacity="0.35" transform="translate(0, -21)" d="M0,144L400,144"/>
    <path fill="none" stroke="url(#_px_svg_2t3bhlcq)" stroke-opacity="0.35" transform="translate(-7, 0)" d="M48,0L48,400"/>
    <path fill="none" stroke="url(#_px_svg_2t3bhlcr)" stroke-opacity="0.35" transform="translate(0, 20)" d="M0,144L400,144"/>
    <path fill="none" stroke="url(#_px_svg_2t3bhlcr)" stroke-opacity="0.35" transform="translate(0, 61)" d="M0,144L400,144"/>
    <path fill="none" stroke="url(#_px_svg_2t3bhlcr)" stroke-opacity="0.35" transform="translate(0, 102)" d="M0,144L400,144"/>
    <path fill="none" stroke="url(#_px_svg_2t3bhlcr)" stroke-opacity="0.35" transform="translate(0, 184)" d="M0,144L400,144"/>
    <path fill="none" stroke="url(#_px_svg_2t3bhlcr)" stroke-opacity="0.35" transform="translate(0, 143)" d="M0,144L400,144"/>
    <path fill="none" stroke="url(#_px_svg_2t3bhlcr)" stroke-opacity="0.35" transform="translate(0, 225)" d="M0,144L400,144"/>
    <path fill="none" stroke="url(#_px_svg_2t3bhlcq)" stroke-opacity="0.35" transform="translate(27, 0)" d="M96,0L96,400"/>
    <path fill="none" stroke="url(#_px_svg_2t3bhlcq)" stroke-opacity="0.35" transform="translate(68, 0)" d="M96,0L96,400"/>
    <path fill="none" stroke="url(#_px_svg_2t3bhlcq)" stroke-opacity="0.35" transform="translate(109, 0)" d="M96,0L96,400"/>
    <path fill="none" stroke="url(#_px_svg_2t3bhlcq)" stroke-opacity="0.35" transform="translate(150, 0)" d="M96,0L96,400"/>
    <path fill="none" stroke="url(#_px_svg_2t3bhlcq)" stroke-opacity="0.35" transform="translate(191, 0)" d="M96,0L96,400"/>
    <path fill="none" stroke="url(#_px_svg_2t3bhlcq)" stroke-opacity="0.35" transform="translate(232, 0)" d="M96,0L96,400"/>
    <path fill="none" stroke="url(#_px_svg_2t3bhlcq)" stroke-opacity="0.35" transform="translate(273, 0)" d="M96,0L96,400"/>
  </g>
  <path data-px-label="purl" fill="#000000" stroke="none" transform="translate(42, 0)" d="M4.8,17.6L34.1091,17.6L34.1091,20.8L4.8,20.8L4.8,17.6z"/>
  <path data-px-label="ktbl" fill="#000000" stroke="none" transform="translate(82, 0)" d="M22.4,4.8L22.4,14.4L27.2,9.6L28.8,11.2L22.4,17.6L22.4,33.6L19.2,33.6L19.2,20.8L14.4,25.6L12.8,24L19.2,17.6L19.2,4.8L22.4,4.8z" style="pointer-events:none"/>
  <path data-px-label="k2tog" fill="#000000" stroke="none" transform="translate(123, 0)" d="M8.6392,28.451L29.0038,8.0863L31.2666,10.349L10.9019,30.7137L8.6392,28.451z" style="pointer-events:none"/>
  <path data-px-label="ssk" fill="#000000" stroke="none" transform="translate(164, 0)" d="M32.2666,28.451L11.9018,8.0862L9.6391,10.349L30.0038,30.7137L32.2666,28.451z" style="pointer-events:none"/>
  <path data-px-label="knit" fill="#000000" stroke="none" transform="translate(205, 0)" d="M22.4,4.8L22.4,33.6L19.2,33.6L19.2,4.8L22.4,4.8z" style="pointer-events:none"/>
  <path data-px-label="yarnover" fill="#000000" stroke="none" transform="translate(61.9376, 60.7022)translate(-20.9376, -19.7021)" d="M20.9376,9.0999L20.939,7.6599C24.0264,7.663,26.8402,8.8464,28.957,10.7822C31.365,12.9842,32.8778,16.166,32.8813,19.7007L32.8813,19.7036C32.8778,23.2383,31.365,26.4201,28.957,28.6222C26.8402,30.5579,24.0264,31.7413,20.939,31.7444L20.9362,31.7444C17.8488,31.7413,15.035,30.5579,12.9182,28.6222C10.5101,26.4201,8.9974,23.2383,8.9938,19.7036L8.9938,19.7007C8.9974,16.166,10.5101,12.9842,12.9182,10.7822C15.035,8.8464,17.8488,7.663,20.9362,7.6599L20.9376,9.0999zM20.9376,10.5399C18.5994,10.5426,16.4708,11.436,14.8617,12.9074C13.0289,14.5835,11.877,17.0035,11.8738,19.7022C11.877,22.4008,13.0289,24.8208,14.8617,26.4969C16.4708,27.9683,18.5994,28.8617,20.9376,28.8644C23.2758,28.8617,25.4044,27.9683,27.0134,26.4969C28.8462,24.8208,29.9982,22.4008,30.0013,19.7022C29.9982,17.0035,28.8462,14.5835,27.0134,12.9074C25.4044,11.436,23.2758,10.5426,20.9376,10.5399z"/>
  <path data-px-label="k3tog" fill="#000000" stroke="none" transform="translate(123, 41)" d="M8.6392,28.451L29.0038,8.0863L31.2666,10.349L22.305,19.3106L31.5594,28.565L29.2966,30.8278L20.0422,21.5734L10.9019,30.7137L8.6392,28.451z" style="pointer-events:none"/>
  <path data-px-label="p2tog" fill="#000000" stroke="none" transform="translate(123, 82)" d="M31.5459,31.4366L31.5459,34.42L8.8774,34.42L8.8774,31.4366L31.5459,31.4366zM8.6392,28.451L29.0038,8.0863L31.2666,10.349L10.9019,30.7137L8.6392,28.451z" style="pointer-events:none"/>
  <path data-px-label="p3tog" fill="#000000" stroke="none" transform="translate(123, 123)" d="M31.5458,31.4366L31.5458,34.4199L8.8774,34.4199L8.8774,31.4366L31.5458,31.4366zM8.6392,28.451L29.0038,8.0863L31.2666,10.349L22.305,19.3106L31.5594,28.565L29.2966,30.8277L20.0422,21.5733L10.9019,30.7137L8.6392,28.451z" style="pointer-events:none"/>
  <path data-px-label="ssp" fill="#000000" stroke="none" transform="translate(164, 41)" d="M30.9458,31.4365L30.9458,34.4199L8.2773,34.4199L8.2773,31.4365L30.9458,31.4365zM11.9018,8.0862L32.2666,28.451L30.0038,30.7137L9.6391,10.349L11.9018,8.0862z" style="pointer-events:none"/>
  <path data-px-label="nostitch" fill="#000000" stroke="none" transform="translate(82, 41)" d="M1.9873,1.569C2.4898,1.569,2.8973,1.9764,2.8973,2.479C2.8973,2.9816,2.4898,3.389,1.9873,3.389C1.4847,3.389,1.0773,2.9816,1.0773,2.479C1.0773,1.9764,1.4847,1.569,1.9873,1.569zM6.5373,1.5689C7.0398,1.5689,7.4473,1.9763,7.4473,2.4789C7.4473,2.9815,7.0398,3.3889,6.5373,3.3889C6.0347,3.3889,5.6273,2.9815,5.6273,2.4789C5.6273,1.9763,6.0347,1.5689,6.5373,1.5689zM11.0872,1.5689C11.5898,1.5689,11.9972,1.9763,11.9972,2.4789C11.9972,2.9815,11.5898,3.3889,11.0872,3.3889C10.5846,3.3889,10.1772,2.9815,10.1772,2.4789C10.1772,1.9763,10.5846,1.5689,11.0872,1.5689zM15.6372,1.5689C16.1398,1.5689,16.5472,1.9763,16.5472,2.4789C16.5472,2.9815,16.1398,3.3889,15.6372,3.3889C15.1346,3.3889,14.7272,2.9815,14.7272,2.4789C14.7272,1.9763,15.1346,1.5689,15.6372,1.5689zM20.1872,1.5689C20.6898,1.5689,21.0972,1.9763,21.0972,2.4789C21.0972,2.9815,20.6898,3.3889,20.1872,3.3889C19.6846,3.3889,19.2772,2.9815,19.2772,2.4789C19.2772,1.9763,19.6846,1.5689,20.1872,1.5689zM24.7372,1.5689C25.2398,1.5689,25.6472,1.9763,25.6472,2.4789C25.6472,2.9815,25.2398,3.3889,24.7372,3.3889C24.2346,3.3889,23.8272,2.9815,23.8272,2.4789C23.8272,1.9763,24.2346,1.5689,24.7372,1.5689zM29.2872,1.5689C29.7898,1.5689,30.1972,1.9763,30.1972,2.4789C30.1972,2.9815,29.7898,3.3889,29.2872,3.3889C28.7846,3.3889,28.3772,2.9815,28.3772,2.4789C28.3772,1.9763,28.7846,1.5689,29.2872,1.5689zM33.8372,1.5689C34.3398,1.5689,34.7472,1.9763,34.7472,2.4789C34.7472,2.9815,34.3398,3.3889,33.8372,3.3889C33.3346,3.3889,32.9272,2.9815,32.9272,2.4789C32.9272,1.9763,33.3346,1.5689,33.8372,1.5689zM38.3872,1.5689C38.8898,1.5689,39.2972,1.9763,39.2972,2.4789C39.2972,2.9815,38.8898,3.3889,38.3872,3.3889C37.8846,3.3889,37.4772,2.9815,37.4772,2.4789C37.4772,1.9763,37.8846,1.5689,38.3872,1.5689zM1.9873,6.1189C2.4898,6.1189,2.8973,6.5263,2.8973,7.0289C2.8973,7.5315,2.4898,7.9389,1.9873,7.9389C1.4847,7.9389,1.0773,7.5315,1.0773,7.0289C1.0773,6.5263,1.4847,6.1189,1.9873,6.1189zM6.5372,6.1189C7.0398,6.1189,7.4472,6.5263,7.4472,7.0289C7.4472,7.5315,7.0398,7.9389,6.5372,7.9389C6.0346,7.9389,5.6272,7.5315,5.6272,7.0289C5.6272,6.5263,6.0346,6.1189,6.5372,6.1189zM11.0872,6.1189C11.5898,6.1189,11.9972,6.5263,11.9972,7.0289C11.9972,7.5315,11.5898,7.9389,11.0872,7.9389C10.5846,7.9389,10.1772,7.5315,10.1772,7.0289C10.1772,6.5263,10.5846,6.1189,11.0872,6.1189zM15.6372,6.1189C16.1398,6.1189,16.5472,6.5263,16.5472,7.0289C16.5472,7.5315,16.1398,7.9389,15.6372,7.9389C15.1346,7.9389,14.7272,7.5315,14.7272,7.0289C14.7272,6.5263,15.1346,6.1189,15.6372,6.1189zM20.1872,6.1189C20.6898,6.1189,21.0972,6.5263,21.0972,7.0289C21.0972,7.5315,20.6898,7.9389,20.1872,7.9389C19.6846,7.9389,19.2772,7.5315,19.2772,7.0289C19.2772,6.5263,19.6846,6.1189,20.1872,6.1189zM24.7372,6.1189C25.2398,6.1189,25.6472,6.5263,25.6472,7.0289C25.6472,7.5315,25.2398,7.9389,24.7372,7.9389C24.2346,7.9389,23.8272,7.5315,23.8272,7.0289C23.8272,6.5263,24.2346,6.1189,24.7372,6.1189zM29.2872,6.1189C29.7898,6.1189,30.1972,6.5263,30.1972,7.0289C30.1972,7.5315,29.7898,7.9389,29.2872,7.9389C28.7846,7.9389,28.3772,7.5315,28.3772,7.0289C28.3772,6.5263,28.7846,6.1189,29.2872,6.1189zM33.8372,6.1189C34.3398,6.1189,34.7472,6.5263,34.7472,7.0289C34.7472,7.5315,34.3398,7.9389,33.8372,7.9389C33.3346,7.9389,32.9272,7.5315,32.9272,7.0289C32.9272,6.5263,33.3346,6.1189,33.8372,6.1189zM38.3872,6.1189C38.8898,6.1189,39.2972,6.5263,39.2972,7.0289C39.2972,7.5315,38.8898,7.9389,38.3872,7.9389C37.8846,7.9389,37.4772,7.5315,37.4772,7.0289C37.4772,6.5263,37.8846,6.1189,38.3872,6.1189zM1.9873,10.6689C2.4898,10.6689,2.8973,11.0763,2.8973,11.5789C2.8973,12.0815,2.4898,12.4889,1.9873,12.4889C1.4847,12.4889,1.0773,12.0815,1.0773,11.5789C1.0773,11.0763,1.4847,10.6689,1.9873,10.6689zM6.5372,10.6689C7.0398,10.6689,7.4472,11.0763,7.4472,11.5789C7.4472,12.0815,7.0398,12.4889,6.5372,12.4889C6.0346,12.4889,5.6272,12.0815,5.6272,11.5789C5.6272,11.0763,6.0346,10.6689,6.5372,10.6689zM11.0872,10.6689C11.5898,10.6689,11.9972,11.0763,11.9972,11.5789C11.9972,12.0815,11.5898,12.4889,11.0872,12.4889C10.5846,12.4889,10.1772,12.0815,10.1772,11.5789C10.1772,11.0763,10.5846,10.6689,11.0872,10.6689zM15.6372,10.6689C16.1398,10.6689,16.5472,11.0763,16.5472,11.5789C16.5472,12.0815,16.1398,12.4889,15.6372,12.4889C15.1346,12.4889,14.7272,12.0815,14.7272,11.5789C14.7272,11.0763,15.1346,10.6689,15.6372,10.6689zM20.1872,10.6689C20.6898,10.6689,21.0972,11.0763,21.0972,11.5789C21.0972,12.0815,20.6898,12.4889,20.1872,12.4889C19.6846,12.4889,19.2772,12.0815,19.2772,11.5789C19.2772,11.0763,19.6846,10.6689,20.1872,10.6689zM24.7372,10.6689C25.2398,10.6689,25.6472,11.0763,25.6472,11.5789C25.6472,12.0815,25.2398,12.4889,24.7372,12.4889C24.2346,12.4889,23.8272,12.0815,23.8272,11.5789C23.8272,11.0763,24.2346,10.6689,24.7372,10.6689zM29.2872,10.6689C29.7898,10.6689,30.1972,11.0763,30.1972,11.5789C30.1972,12.0815,29.7898,12.4889,29.2872,12.4889C28.7846,12.4889,28.3772,12.0815,28.3772,11.5789C28.3772,11.0763,28.7846,10.6689,29.2872,10.6689zM33.8372,10.6689C34.3398,10.6689,34.7472,11.0763,34.7472,11.5789C34.7472,12.0815,34.3398,12.4889,33.8372,12.4889C33.3346,12.4889,32.9272,12.0815,32.9272,11.5789C32.9272,11.0763,33.3346,10.6689,33.8372,10.6689zM38.3872,10.6689C38.8898,10.6689,39.2972,11.0763,39.2972,11.5789C39.2972,12.0815,38.8898,12.4889,38.3872,12.4889C37.8846,12.4889,37.4772,12.0815,37.4772,11.5789C37.4772,11.0763,37.8846,10.6689,38.3872,10.6689zM1.9873,15.2189C2.4898,15.2189,2.8973,15.6263,2.8973,16.1289C2.8973,16.6315,2.4898,17.0389,1.9873,17.0389C1.4847,17.0389,1.0773,16.6315,1.0773,16.1289C1.0773,15.6263,1.4847,15.2189,1.9873,15.2189zM6.5372,15.2189C7.0398,15.2189,7.4472,15.6263,7.4472,16.1289C7.4472,16.6315,7.0398,17.0389,6.5372,17.0389C6.0346,17.0389,5.6272,16.6315,5.6272,16.1289C5.6272,15.6263,6.0346,15.2189,6.5372,15.2189zM11.0872,15.2189C11.5898,15.2189,11.9972,15.6263,11.9972,16.1289C11.9972,16.6315,11.5898,17.0389,11.0872,17.0389C10.5846,17.0389,10.1772,16.6315,10.1772,16.1289C10.1772,15.6263,10.5846,15.2189,11.0872,15.2189zM15.6372,15.2189C16.1398,15.2189,16.5472,15.6263,16.5472,16.1289C16.5472,16.6315,16.1398,17.0389,15.6372,17.0389C15.1346,17.0389,14.7272,16.6315,14.7272,16.1289C14.7272,15.6263,15.1346,15.2189,15.6372,15.2189zM20.1872,15.2189C20.6898,15.2189,21.0972,15.6263,21.0972,16.1289C21.0972,16.6315,20.6898,17.0389,20.1872,17.0389C19.6846,17.0389,19.2772,16.6315,19.2772,16.1289C19.2772,15.6263,19.6846,15.2189,20.1872,15.2189zM24.7372,15.2189C25.2398,15.2189,25.6472,15.6263,25.6472,16.1289C25.6472,16.6315,25.2398,17.0389,24.7372,17.0389C24.2346,17.0389,23.8272,16.6315,23.8272,16.1289C23.8272,15.6263,24.2346,15.2189,24.7372,15.2189zM29.2872,15.2189C29.7898,15.2189,30.1972,15.6263,30.1972,16.1289C30.1972,16.6315,29.7898,17.0389,29.2872,17.0389C28.7846,17.0389,28.3772,16.6315,28.3772,16.1289C28.3772,15.6263,28.7846,15.2189,29.2872,15.2189zM33.8372,15.2189C34.3398,15.2189,34.7472,15.6263,34.7472,16.1289C34.7472,16.6315,34.3398,17.0389,33.8372,17.0389C33.3346,17.0389,32.9272,16.6315,32.9272,16.1289C32.9272,15.6263,33.3346,15.2189,33.8372,15.2189zM38.3872,15.2189C38.8898,15.2189,39.2972,15.6263,39.2972,16.1289C39.2972,16.6315,38.8898,17.0389,38.3872,17.0389C37.8846,17.0389,37.4772,16.6315,37.4772,16.1289C37.4772,15.6263,37.8846,15.2189,38.3872,15.2189zM1.9873,19.7689C2.4898,19.7689,2.8973,20.1763,2.8973,20.6789C2.8973,21.1815,2.4898,21.5889,1.9873,21.5889C1.4847,21.5889,1.0773,21.1815,1.0773,20.6789C1.0773,20.1763,1.4847,19.7689,1.9873,19.7689zM6.5372,19.7689C7.0398,19.7689,7.4472,20.1763,7.4472,20.6789C7.4472,21.1815,7.0398,21.5889,6.5372,21.5889C6.0346,21.5889,5.6272,21.1815,5.6272,20.6789C5.6272,20.1763,6.0346,19.7689,6.5372,19.7689zM11.0872,19.7689C11.5898,19.7689,11.9972,20.1763,11.9972,20.6789C11.9972,21.1815,11.5898,21.5889,11.0872,21.5889C10.5846,21.5889,10.1772,21.1815,10.1772,20.6789C10.1772,20.1763,10.5846,19.7689,11.0872,19.7689zM15.6372,19.7689C16.1398,19.7689,16.5472,20.1763,16.5472,20.6789C16.5472,21.1815,16.1398,21.5889,15.6372,21.5889C15.1346,21.5889,14.7272,21.1815,14.7272,20.6789C14.7272,20.1763,15.1346,19.7689,15.6372,19.7689zM20.1872,19.7689C20.6898,19.7689,21.0972,20.1763,21.0972,20.6789C21.0972,21.1815,20.6898,21.5889,20.1872,21.5889C19.6846,21.5889,19.2772,21.1815,19.2772,20.6789C19.2772,20.1763,19.6846,19.7689,20.1872,19.7689zM24.7372,19.7689C25.2398,19.7689,25.6472,20.1763,25.6472,20.6789C25.6472,21.1815,25.2398,21.5889,24.7372,21.5889C24.2346,21.5889,23.8272,21.1815,23.8272,20.6789C23.8272,20.1763,24.2346,19.7689,24.7372,19.7689zM29.2872,19.7689C29.7898,19.7689,30.1972,20.1763,30.1972,20.6789C30.1972,21.1815,29.7898,21.5889,29.2872,21.5889C28.7846,21.5889,28.3772,21.1815,28.3772,20.6789C28.3772,20.1763,28.7846,19.7689,29.2872,19.7689zM33.8372,19.7689C34.3398,19.7689,34.7472,20.1763,34.7472,20.6789C34.7472,21.1815,34.3398,21.5889,33.8372,21.5889C33.3346,21.5889,32.9272,21.1815,32.9272,20.6789C32.9272,20.1763,33.3346,19.7689,33.8372,19.7689zM38.3872,19.7689C38.8898,19.7689,39.2972,20.1763,39.2972,20.6789C39.2972,21.1815,38.8898,21.5889,38.3872,21.5889C37.8846,21.5889,37.4772,21.1815,37.4772,20.6789C37.4772,20.1763,37.8846,19.7689,38.3872,19.7689zM1.9873,24.3189C2.4898,24.3189,2.8973,24.7263,2.8973,25.2289C2.8973,25.7315,2.4898,26.1389,1.9873,26.1389C1.4847,26.1389,1.0773,25.7315,1.0773,25.2289C1.0773,24.7263,1.4847,24.3189,1.9873,24.3189zM6.5372,24.3189C7.0398,24.3189,7.4472,24.7263,7.4472,25.2289C7.4472,25.7315,7.0398,26.1389,6.5372,26.1389C6.0346,26.1389,5.6272,25.7315,5.6272,25.2289C5.6272,24.7263,6.0346,24.3189,6.5372,24.3189zM11.0872,24.3189C11.5898,24.3189,11.9972,24.7263,11.9972,25.2289C11.9972,25.7315,11.5898,26.1389,11.0872,26.1389C10.5846,26.1389,10.1772,25.7315,10.1772,25.2289C10.1772,24.7263,10.5846,24.3189,11.0872,24.3189zM15.6372,24.3189C16.1398,24.3189,16.5472,24.7263,16.5472,25.2289C16.5472,25.7315,16.1398,26.1389,15.6372,26.1389C15.1346,26.1389,14.7272,25.7315,14.7272,25.2289C14.7272,24.7263,15.1346,24.3189,15.6372,24.3189zM20.1872,24.3189C20.6898,24.3189,21.0972,24.7263,21.0972,25.2289C21.0972,25.7315,20.6898,26.1389,20.1872,26.1389C19.6846,26.1389,19.2772,25.7315,19.2772,25.2289C19.2772,24.7263,19.6846,24.3189,20.1872,24.3189zM24.7372,24.3189C25.2398,24.3189,25.6472,24.7263,25.6472,25.2289C25.6472,25.7315,25.2398,26.1389,24.7372,26.1389C24.2346,26.1389,23.8272,25.7315,23.8272,25.2289C23.8272,24.7263,24.2346,24.3189,24.7372,24.3189zM29.2872,24.3189C29.7898,24.3189,30.1972,24.7263,30.1972,25.2289C30.1972,25.7315,29.7898,26.1389,29.2872,26.1389C28.7846,26.1389,28.3772,25.7315,28.3772,25.2289C28.3772,24.7263,28.7846,24.3189,29.2872,24.3189zM33.8372,24.3189C34.3398,24.3189,34.7472,24.7263,34.7472,25.2289C34.7472,25.7315,34.3398,26.1389,33.8372,26.1389C33.3346,26.1389,32.9272,25.7315,32.9272,25.2289C32.9272,24.7263,33.3346,24.3189,33.8372,24.3189zM38.3872,24.3189C38.8898,24.3189,39.2972,24.7263,39.2972,25.2289C39.2972,25.7315,38.8898,26.1389,38.3872,26.1389C37.8846,26.1389,37.4772,25.7315,37.4772,25.2289C37.4772,24.7263,37.8846,24.3189,38.3872,24.3189zM1.9873,28.8689C2.4898,28.8689,2.8973,29.2763,2.8973,29.7789C2.8973,30.2815,2.4898,30.6889,1.9873,30.6889C1.4847,30.6889,1.0773,30.2815,1.0773,29.7789C1.0773,29.2763,1.4847,28.8689,1.9873,28.8689zM6.5372,28.8689C7.0398,28.8689,7.4472,29.2763,7.4472,29.7789C7.4472,30.2815,7.0398,30.6889,6.5372,30.6889C6.0346,30.6889,5.6272,30.2815,5.6272,29.7789C5.6272,29.2763,6.0346,28.8689,6.5372,28.8689zM11.0872,28.8689C11.5898,28.8689,11.9972,29.2763,11.9972,29.7789C11.9972,30.2815,11.5898,30.6889,11.0872,30.6889C10.5846,30.6889,10.1772,30.2815,10.1772,29.7789C10.1772,29.2763,10.5846,28.8689,11.0872,28.8689zM15.6372,28.8689C16.1398,28.8689,16.5472,29.2763,16.5472,29.7789C16.5472,30.2815,16.1398,30.6889,15.6372,30.6889C15.1346,30.6889,14.7272,30.2815,14.7272,29.7789C14.7272,29.2763,15.1346,28.8689,15.6372,28.8689zM20.1872,28.8689C20.6898,28.8689,21.0972,29.2763,21.0972,29.7789C21.0972,30.2815,20.6898,30.6889,20.1872,30.6889C19.6846,30.6889,19.2772,30.2815,19.2772,29.7789C19.2772,29.2763,19.6846,28.8689,20.1872,28.8689zM24.7372,28.8689C25.2398,28.8689,25.6472,29.2763,25.6472,29.7789C25.6472,30.2815,25.2398,30.6889,24.7372,30.6889C24.2346,30.6889,23.8272,30.2815,23.8272,29.7789C23.8272,29.2763,24.2346,28.8689,24.7372,28.8689zM29.2872,28.8689C29.7898,28.8689,30.1972,29.2763,30.1972,29.7789C30.1972,30.2815,29.7898,30.6889,29.2872,30.6889C28.7846,30.6889,28.3772,30.2815,28.3772,29.7789C28.3772,29.2763,28.7846,28.8689,29.2872,28.8689zM33.8372,28.8689C34.3398,28.8689,34.7472,29.2763,34.7472,29.7789C34.7472,30.2815,34.3398,30.6889,33.8372,30.6889C33.3346,30.6889,32.9272,30.2815,32.9272,29.7789C32.9272,29.2763,33.3346,28.8689,33.8372,28.8689zM38.3872,28.8689C38.8898,28.8689,39.2972,29.2763,39.2972,29.7789C39.2972,30.2815,38.8898,30.6889,38.3872,30.6889C37.8846,30.6889,37.4772,30.2815,37.4772,29.7789C37.4772,29.2763,37.8846,28.8689,38.3872,28.8689zM1.9873,33.4189C2.4898,33.4189,2.8973,33.8263,2.8973,34.3289C2.8973,34.8315,2.4898,35.2389,1.9873,35.2389C1.4847,35.2389,1.0773,34.8315,1.0773,34.3289C1.0773,33.8263,1.4847,33.4189,1.9873,33.4189zM6.5372,33.4189C7.0398,33.4189,7.4472,33.8263,7.4472,34.3289C7.4472,34.8315,7.0398,35.2389,6.5372,35.2389C6.0346,35.2389,5.6272,34.8315,5.6272,34.3289C5.6272,33.8263,6.0346,33.4189,6.5372,33.4189zM11.0872,33.4189C11.5898,33.4189,11.9972,33.8263,11.9972,34.3289C11.9972,34.8315,11.5898,35.2389,11.0872,35.2389C10.5846,35.2389,10.1772,34.8315,10.1772,34.3289C10.1772,33.8263,10.5846,33.4189,11.0872,33.4189zM15.6372,33.4189C16.1398,33.4189,16.5472,33.8263,16.5472,34.3289C16.5472,34.8315,16.1398,35.2389,15.6372,35.2389C15.1346,35.2389,14.7272,34.8315,14.7272,34.3289C14.7272,33.8263,15.1346,33.4189,15.6372,33.4189zM20.1872,33.4189C20.6898,33.4189,21.0972,33.8263,21.0972,34.3289C21.0972,34.8315,20.6898,35.2389,20.1872,35.2389C19.6846,35.2389,19.2772,34.8315,19.2772,34.3289C19.2772,33.8263,19.6846,33.4189,20.1872,33.4189zM24.7372,33.4189C25.2398,33.4189,25.6472,33.8263,25.6472,34.3289C25.6472,34.8315,25.2398,35.2389,24.7372,35.2389C24.2346,35.2389,23.8272,34.8315,23.8272,34.3289C23.8272,33.8263,24.2346,33.4189,24.7372,33.4189zM29.2872,33.4189C29.7898,33.4189,30.1972,33.8263,30.1972,34.3289C30.1972,34.8315,29.7898,35.2389,29.2872,35.2389C28.7846,35.2389,28.3772,34.8315,28.3772,34.3289C28.3772,33.8263,28.7846,33.4189,29.2872,33.4189zM33.8372,33.4189C34.3398,33.4189,34.7472,33.8263,34.7472,34.3289C34.7472,34.8315,34.3398,35.2389,33.8372,35.2389C33.3346,35.2389,32.9272,34.8315,32.9272,34.3289C32.9272,33.8263,33.3346,33.4189,33.8372,33.4189zM38.3872,33.4189C38.8898,33.4189,39.2972,33.8263,39.2972,34.3289C39.2972,34.8315,38.8898,35.2389,38.3872,35.2389C37.8846,35.2389,37.4772,34.8315,37.4772,34.3289C37.4772,33.8263,37.8846,33.4189,38.3872,33.4189zM1.9873,37.9689C2.4898,37.9689,2.8973,38.3763,2.8973,38.8789C2.8973,39.3815,2.4898,39.7889,1.9873,39.7889C1.4847,39.7889,1.0773,39.3815,1.0773,38.8789C1.0773,38.3763,1.4847,37.9689,1.9873,37.9689zM6.5372,37.9689C7.0398,37.9689,7.4472,38.3763,7.4472,38.8789C7.4472,39.3815,7.0398,39.7889,6.5372,39.7889C6.0346,39.7889,5.6272,39.3815,5.6272,38.8789C5.6272,38.3763,6.0346,37.9689,6.5372,37.9689zM11.0872,37.9689C11.5898,37.9689,11.9972,38.3763,11.9972,38.8789C11.9972,39.3815,11.5898,39.7889,11.0872,39.7889C10.5846,39.7889,10.1772,39.3815,10.1772,38.8789C10.1772,38.3763,10.5846,37.9689,11.0872,37.9689zM15.6372,37.9689C16.1398,37.9689,16.5472,38.3763,16.5472,38.8789C16.5472,39.3815,16.1398,39.7889,15.6372,39.7889C15.1346,39.7889,14.7272,39.3815,14.7272,38.8789C14.7272,38.3763,15.1346,37.9689,15.6372,37.9689zM20.1872,37.9689C20.6898,37.9689,21.0972,38.3763,21.0972,38.8789C21.0972,39.3815,20.6898,39.7889,20.1872,39.7889C19.6846,39.7889,19.2772,39.3815,19.2772,38.8789C19.2772,38.3763,19.6846,37.9689,20.1872,37.9689zM24.7372,37.9689C25.2398,37.9689,25.6472,38.3763,25.6472,38.8789C25.6472,39.3815,25.2398,39.7889,24.7372,39.7889C24.2346,39.7889,23.8272,39.3815,23.8272,38.8789C23.8272,38.3763,24.2346,37.9689,24.7372,37.9689zM29.2872,37.9689C29.7898,37.9689,30.1972,38.3763,30.1972,38.8789C30.1972,39.3815,29.7898,39.7889,29.2872,39.7889C28.7846,39.7889,28.3772,39.3815,28.3772,38.8789C28.3772,38.3763,28.7846,37.9689,29.2872,37.9689zM33.8372,37.9689C34.3398,37.9689,34.7472,38.3763,34.7472,38.8789C34.7472,39.3815,34.3398,39.7889,33.8372,39.7889C33.3346,39.7889,32.9272,39.3815,32.9272,38.8789C32.9272,38.3763,33.3346,37.9689,33.8372,37.9689zM38.3872,37.9689C38.8898,37.9689,39.2972,38.3763,39.2972,38.8789C39.2972,39.3815,38.8898,39.7889,38.3872,39.7889C37.8846,39.7889,37.4772,39.3815,37.4772,38.8789C37.4772,38.3763,37.8846,37.9689,38.3872,37.9689z" style="pointer-events:none"/>
  <path data-px-label="line" fill="#000000" stroke="none" transform="translate(0, 246)" d="M5.8,17.6L35.1091,17.6L35.1091,20.8L5.8,20.8L5.8,17.6z" style="pointer-events:none"/>
  <path data-px-label="circle" fill="#000000" stroke="none" transform="translate(41, 246)" d="M20.9376,9.0999L20.939,7.6599C24.0263,7.6629,26.8402,8.8464,28.957,10.7822C31.3649,12.9842,32.8778,16.166,32.8813,19.7007L32.8813,19.7036C32.8778,23.2382,31.3649,26.4202,28.957,28.6222C26.8402,30.5579,24.0263,31.7414,20.939,31.7444L20.9362,31.7444C17.8489,31.7414,15.0348,30.5579,12.9182,28.6222C10.5101,26.4202,8.9974,23.2382,8.9938,19.7036L8.9938,19.7007C8.9974,16.166,10.5101,12.9842,12.9182,10.7822C15.0348,8.8464,17.8489,7.6629,20.9362,7.6599L20.9376,9.0999zM20.9376,10.5399C18.5994,10.5426,16.4707,11.436,14.8617,12.9074C13.0289,14.5835,11.8769,17.0035,11.8737,19.7022C11.8769,22.4007,13.0289,24.8208,14.8617,26.4969C16.4707,27.9682,18.5994,28.8617,20.9376,28.8644C23.2758,28.8617,25.4044,27.9682,27.0134,26.4969C28.8461,24.8208,29.9983,22.4007,30.0013,19.7022C29.9983,17.0035,28.8461,14.5835,27.0134,12.9074C25.4044,11.436,23.2758,10.5426,20.9376,10.5399z" style="pointer-events:none"/>
  <path fill="none" stroke="#050607" transform="translate(0, 42)" d="M8.6521,30.8744C6.3359,37.3399,32.1085,26.1693,32.1085,26.1693L31.0814,4.6822C31.0814,4.6822,26.3794,3.046,21.4941,14.2078C19.6718,18.3715,8.1996,11.179,8.1996,11.179C8.1996,11.179,12.4697,20.2178,8.6521,30.8744z"/>
  <path fill="none" stroke="#050607" transform="translate(0, 84)" d="M10.2122,3.5755C10.2122,3.5755,23.4936,10.4734,23.5233,15.6018C23.5516,20.4831,8.5465,21.1135,8.9363,25.9794C9.1315,28.4164,15.144,35.8603,15.144,35.8603L26.0269,35.7473C26.0269,35.7473,20.1664,28.5508,19.9152,26.2368C19.3927,21.4227,34.1322,20.5705,33.9903,15.7303C33.8394,10.5864,20.4951,3.7454,20.4951,3.7454L10.2122,3.5755zM19.7852,6.4759C21.5429,7.5231,22.5998,8.953,22.5998,8.953M25.3108,11.0866C26.8692,12.4283,27.4187,14.2168,27.4187,14.2168M26.8858,16.857C26.1205,18.3267,23.2871,19.9238,23.2871,19.9238M19.8469,22.0673C18.0057,22.554,15.6434,24.8985,15.6434,24.8985M14.9708,27.3972C15.1995,28.8617,17.4622,31.5418,17.4622,31.5418"/>
  <path fill="none" stroke="#050607" transform="translate(2.5, 4.5)" d="M0.5,0.5L6.5,5.5L11.5,13.5L11.5,23.5L8.5,29.5L3.5,29.5L0.5,23.5L0.5,13.5L5.5,8.5L12.5,4.5L16.5,4.5L23.5,8.5L28.5,13.5L28.5,23.5L25.5,29.5L20.5,29.5L17.5,23.5L17.5,13.5L22.5,5.5L28.5,0.5"/>
</svg>